<?xml version="1.0" standalone="no"?>
<!DOCTYPE svg PUBLIC "-//W3C//DTD SVG 20010904//EN"
 "http://www.w3.org/TR/2001/REC-SVG-20010904/DTD/svg10.dtd">
<svg version="1.0" xmlns="http://www.w3.org/2000/svg"
 width="483.000000pt" height="693.000000pt" viewBox="0 0 483.000000 693.000000"
 preserveAspectRatio="xMidYMid meet">
<metadata>
Created by potrace 1.10, written by Peter Selinger 2001-2011
</metadata>
<g transform="translate(0.000000,693.000000) scale(0.100000,-0.100000)"
fill="#000000" stroke="none">
<path d="M2345 6027 c-85 -34 -115 -61 -164 -144 -47 -81 -65 -154 -65 -268
-1 -91 2 -105 28 -160 34 -70 134 -181 149 -166 6 6 9 42 8 80 -3 101 -3 101
181 271 138 127 145 283 16 363 -53 33 -110 42 -153 24z"/>
<path d="M2770 5586 c-14 -9 -32 -15 -40 -16 -25 0 -144 -83 -181 -125 -19
-21 -40 -44 -47 -51 -15 -16 -72 -134 -72 -151 0 -7 -12 -23 -26 -37 l-27 -24
25 -24 c18 -16 27 -37 30 -72 3 -26 13 -55 21 -64 15 -14 17 -13 26 9 5 13 20
35 35 48 21 20 32 23 70 18 24 -4 59 -13 77 -21 38 -16 103 -41 134 -51 19 -6
18 -8 -7 -21 -15 -8 -104 -34 -198 -58 -94 -24 -177 -49 -185 -56 -10 -8 -15
-31 -15 -64 0 -28 -4 -57 -8 -64 -14 -21 -31 31 -25 75 3 27 1 43 -9 51 -8 6
-94 32 -192 57 -98 25 -186 50 -197 55 -24 13 -25 30 -1 30 10 0 22 4 28 9 5
4 41 18 80 31 67 21 72 22 102 6 33 -17 33 -17 44 22 2 8 32 26 68 41 96 41
92 64 -9 40 -60 -13 -72 -7 -100 53 -55 120 -225 237 -358 246 -150 10 -263
-78 -263 -205 0 -85 54 -148 149 -173 50 -13 91 -8 199 26 157 49 251 11 101
-40 -26 -9 -72 -27 -103 -42 l-56 -25 0 -83 c0 -103 12 -117 115 -135 110 -19
346 -98 360 -120 3 -6 -8 -39 -25 -75 -31 -65 -128 -176 -154 -176 -17 0 -71
76 -103 147 -18 39 -27 76 -27 112 l-1 54 -50 28 c-54 30 -97 36 -112 17 -6
-7 -16 -44 -22 -83 -15 -88 -81 -441 -136 -730 -7 -38 -20 -113 -29 -165 -10
-52 -23 -126 -31 -165 -8 -38 -21 -108 -29 -155 -9 -47 -20 -110 -26 -140 -16
-88 -57 -312 -89 -485 -16 -88 -42 -227 -56 -310 -15 -82 -33 -175 -40 -205
-8 -30 -21 -102 -30 -160 -22 -138 -32 -191 -50 -275 -8 -38 -20 -99 -25 -135
-6 -36 -21 -120 -35 -187 -36 -177 -65 -347 -65 -377 0 -29 2 -29 95 -26 65 2
85 13 315 176 217 154 265 178 287 140 10 -17 311 -372 373 -439 42 -47 44
-51 50 -125 l5 -77 74 -3 c41 -2 78 1 84 7 5 5 11 49 13 97 l5 88 72 87 c102
124 318 372 337 386 35 28 32 30 411 -250 l119 -87 64 0 c85 0 94 11 73 88 -9
31 -19 80 -22 107 -4 28 -11 66 -16 86 -5 19 -13 62 -18 95 -5 32 -19 109 -31
169 -11 61 -25 137 -30 170 -5 33 -16 94 -23 135 -26 136 -47 244 -62 315 -8
39 -32 174 -55 300 -22 127 -44 253 -50 280 -17 85 -48 245 -65 345 -9 52 -20
112 -26 132 -5 20 -13 67 -19 105 -9 68 -19 126 -45 258 -8 39 -23 122 -35
185 -12 63 -25 138 -30 165 -5 28 -21 113 -35 190 -14 77 -33 174 -41 215 -8
41 -19 98 -24 126 -5 28 -14 70 -20 93 -10 37 -14 41 -43 40 -18 0 -52 -10
-77 -22 l-45 -22 -6 -70 c-4 -53 -15 -88 -43 -145 -20 -41 -46 -84 -57 -95
l-21 -20 -69 75 c-55 60 -69 81 -69 107 0 22 -8 38 -25 51 -14 11 -25 24 -25
30 0 13 77 45 200 81 58 17 126 38 151 46 26 8 53 15 60 15 8 1 24 9 37 19 19
17 22 28 22 99 0 84 -5 92 -51 92 -11 0 -22 6 -25 14 -7 17 -60 40 -146 62
-41 10 -68 22 -68 30 0 23 56 44 117 44 71 0 198 30 244 56 82 48 106 178 50
267 -19 29 -46 54 -72 68 -55 27 -145 35 -179 15z m-764 -1168 c11 -13 28 -42
38 -65 18 -41 18 -42 -2 -75 -53 -84 -122 -122 -122 -66 0 36 28 172 41 202
15 32 20 32 45 4z m779 -5 c16 -24 24 -61 41 -195 5 -39 4 -48 -8 -48 -19 0
-90 76 -113 119 -15 31 -15 33 16 91 17 33 35 60 39 60 4 0 16 -12 25 -27z
m-490 -74 c10 -70 -3 -221 -18 -216 -14 4 -97 146 -97 165 0 17 79 102 95 102
8 0 16 -20 20 -51z m249 17 c33 -43 33 -80 1 -144 -34 -68 -50 -80 -66 -50
-13 23 -15 146 -3 201 8 38 36 35 68 -7z m150 -199 c49 -51 168 -207 188 -246
23 -45 24 -128 1 -161 -78 -115 -158 -210 -176 -210 -27 0 -87 49 -171 138
l-69 74 5 66 c5 55 17 92 68 202 85 186 97 196 154 137z m-464 -189 c43 -90
70 -159 70 -180 0 -29 -14 -47 -120 -150 -66 -65 -126 -118 -134 -118 -17 0
-115 119 -189 230 -22 32 -22 97 1 140 23 46 173 231 214 265 l33 28 28 -34
c15 -19 59 -100 97 -181z m713 -375 c18 -42 57 -250 57 -300 0 -25 -4 -33 -18
-33 -23 0 -202 170 -202 191 0 14 29 60 50 79 3 3 22 26 43 53 21 26 42 47 46
47 4 0 15 -17 24 -37z m-1076 5 c33 -37 103 -146 103 -160 0 -25 -183 -188
-211 -188 -24 0 10 251 47 338 16 38 33 40 61 10z m431 -201 c3 -227 1 -230
-89 -141 -59 59 -99 125 -99 166 0 31 138 170 165 166 19 -3 20 -12 23 -191z
m279 127 c45 -48 63 -74 63 -94 0 -31 -125 -203 -143 -197 -19 6 -25 46 -26
185 -1 130 7 172 32 172 6 0 40 -30 74 -66z m-511 -192 c12 -9 30 -33 39 -52
10 -19 51 -82 92 -138 91 -128 103 -151 103 -197 0 -50 -10 -65 -82 -124 -35
-28 -101 -82 -148 -121 -47 -38 -92 -70 -101 -70 -31 0 -234 237 -276 322 -25
48 3 89 170 250 84 81 159 148 167 148 8 0 25 -8 36 -18z m833 -133 c186 -186
185 -180 84 -313 -38 -49 -81 -108 -98 -131 -37 -53 -76 -99 -92 -108 -7 -5
-23 -3 -35 4 -34 18 -134 95 -210 162 l-68 59 0 87 0 86 64 90 c138 195 155
215 181 215 18 0 63 -39 174 -151z m199 -396 c5 -21 17 -81 26 -133 10 -52 24
-125 32 -162 14 -69 19 -188 7 -188 -14 0 -144 94 -217 156 -95 81 -97 93 -23
190 28 38 69 93 89 122 47 64 73 69 86 15z m-1313 -118 c50 -62 91 -120 93
-128 2 -8 -17 -34 -42 -57 -76 -71 -240 -200 -251 -196 -13 4 -9 168 5 211 6
18 15 55 19 81 8 44 35 158 46 192 11 32 45 5 130 -103z m515 -196 c0 -224 -2
-250 -17 -256 -20 -8 -75 49 -182 190 -58 76 -72 101 -67 119 6 21 149 148
213 190 52 33 53 27 53 -243z m230 234 c34 -22 151 -122 173 -146 9 -10 17
-27 17 -38 0 -25 -208 -301 -223 -296 -33 11 -36 497 -3 497 6 0 23 -8 36 -17z
m309 -259 c12 -9 35 -28 50 -43 15 -14 96 -84 179 -154 82 -70 153 -135 156
-143 15 -40 4 -71 -47 -131 -151 -179 -254 -293 -270 -298 -20 -8 -59 15 -203
118 -200 142 -224 163 -224 200 0 36 41 102 178 287 47 63 96 130 109 148 27
36 39 39 72 16z m-712 -216 c87 -111 161 -211 166 -221 13 -34 -2 -55 -81
-115 -69 -53 -249 -178 -323 -225 -37 -24 -48 -18 -139 89 -41 48 -95 110
-120 138 -105 117 -110 125 -110 166 0 38 4 43 137 157 200 173 254 213 285
213 23 0 49 -29 185 -202z m1142 -360 c5 -18 19 -85 31 -148 11 -63 27 -149
34 -190 8 -41 18 -99 22 -127 6 -50 5 -53 -15 -53 -22 0 -340 221 -354 247 -8
14 6 44 35 74 8 8 46 50 85 94 136 155 144 159 162 103z m-1717 -7 c13 -15 67
-79 121 -140 53 -62 97 -118 97 -126 0 -7 -33 -38 -74 -67 -255 -182 -288
-200 -303 -161 -10 25 44 343 78 456 22 77 42 86 81 38z m1067 -105 c179 -130
206 -152 209 -168 2 -11 -26 -51 -70 -100 -41 -46 -109 -126 -152 -178 -77
-93 -109 -120 -124 -106 -9 10 -9 586 0 609 11 26 38 15 137 -57z m-321 -259
c2 -273 0 -318 -13 -323 -21 -9 -50 18 -160 146 -54 63 -120 138 -147 167 -76
82 -81 74 152 242 73 53 133 90 145 88 19 -2 20 -10 23 -320z"/>
</g>
</svg>
